<svg xmlns="http://www.w3.org/2000/svg" xmlns:xlink="http://www.w3.org/1999/xlink" width="584" height="353pt" viewBox="0 0 438.1 353"><g id="graph0" class="graph" transform="scale(1 1) rotate(0) translate(4 349)"><title>conda_concepts</title><polygon fill="#fff" stroke="transparent" points="-4 4 -4 -349 434.097 -349 434.097 4 -4 4"/><g id="node1" class="node"><title>repository</title><polygon fill="none" stroke="#000" points="152.554 -345 80.022 -345 80.022 -309 152.554 -309 152.554 -345"/><text x="116.288" y="-322.8" fill="#000" font-family="Times,serif" font-size="14" text-anchor="middle">repository</text></g><g id="node2" class="node"><title>remote</title><polygon fill="none" stroke="#000" points="69.657 -259 14.918 -259 14.918 -223 69.657 -223 69.657 -259"/><text x="42.288" y="-236.8" fill="#000" font-family="Times,serif" font-size="14" text-anchor="middle">remote</text></g><g id="edge1" class="edge"><title>repository-&gt;remote</title><path fill="none" stroke="#000" d="M79.7632,-320.1971C50.3588,-313.8901 12.4629,-303.5943 3.2564,-291 -2.8138,-282.696 .7418,-273.7953 7.7071,-265.8388"/><polygon fill="#000" stroke="#000" points="10.167 -268.329 14.884 -258.841 5.28 -263.316 10.167 -268.329"/><text x="30.303" y="-279.8" fill="#000" font-family="Times,serif" font-size="14" text-anchor="middle">may have</text></g><g id="node3" class="node"><title>files</title><polygon fill="none" stroke="#000" points="162.288 -259 108.288 -259 108.288 -223 162.288 -223 162.288 -259"/><text x="135.288" y="-236.8" fill="#000" font-family="Times,serif" font-size="14" text-anchor="middle">files</text></g><g id="edge3" class="edge"><title>repository-&gt;files</title><path fill="none" stroke="#000" d="M125.2223,-308.6912C127.5758,-303.1308 129.8551,-296.923 131.2877,-291 132.9657,-284.062 133.9793,-276.4408 134.5818,-269.2853"/><polygon fill="#000" stroke="#000" points="138.077 -269.465 135.2 -259.269 131.091 -269.034 138.077 -269.465"/><text x="157.615" y="-279.8" fill="#000" font-family="Times,serif" font-size="14" text-anchor="middle">contains</text></g><g id="node4" class="node"><title>branch</title><polygon fill="none" stroke="#000" points="302.378 -259 248.198 -259 248.198 -223 302.378 -223 302.378 -259"/><text x="275.288" y="-236.8" fill="#000" font-family="Times,serif" font-size="14" text-anchor="middle">branch</text></g><g id="edge4" class="edge"><title>repository-&gt;branch</title><path fill="none" stroke="#000" d="M151.4837,-308.8631C162.3536,-303.201 174.3431,-296.8939 185.2877,-291 203.2136,-281.3464 223.0053,-270.3846 239.4535,-261.19"/><polygon fill="#000" stroke="#000" points="241.2 -264.224 248.214 -256.283 237.779 -258.116 241.2 -264.224"/><text x="235.921" y="-279.8" fill="#000" font-family="Times,serif" font-size="14" text-anchor="middle">has many</text></g><g id="edge2" class="edge"><title>remote-&gt;repository</title><path fill="none" stroke="#000" d="M53.1067,-259.372C59.2598,-269.1848 67.4257,-281.2214 75.9566,-291 79.1805,-294.6954 82.7684,-298.3819 86.4375,-301.9094"/><polygon fill="#000" stroke="#000" points="84.269 -304.671 93.992 -308.878 89.015 -299.525 84.269 -304.671"/><text x="101.953" y="-279.8" fill="#000" font-family="Times,serif" font-size="14" text-anchor="middle">identifies</text></g><g id="edge7" class="edge"><title>files-&gt;branch</title><path fill="none" stroke="#000" d="M162.6134,-241C184.1019,-241 214.2662,-241 237.9773,-241"/><polygon fill="#000" stroke="#000" points="238.031 -244.5 248.031 -241 238.031 -237.5 238.031 -244.5"/><text x="205.265" y="-246.8" fill="#000" font-family="Times,serif" font-size="14" text-anchor="middle">can differ in</text></g><g id="node5" class="node"><title>history</title><polygon fill="none" stroke="#000" points="162.677 -173 107.898 -173 107.898 -137 162.677 -137 162.677 -173"/><text x="135.288" y="-150.8" fill="#000" font-family="Times,serif" font-size="14" text-anchor="middle">history</text></g><g id="edge8" class="edge"><title>files-&gt;history</title><path fill="none" stroke="#000" d="M135.2877,-222.7616C135.2877,-211.3597 135.2877,-196.4342 135.2877,-183.494"/><polygon fill="#000" stroke="#000" points="138.788 -183.212 135.288 -173.212 131.788 -183.212 138.788 -183.212"/><text x="148.501" y="-193.8" fill="#000" font-family="Times,serif" font-size="14" text-anchor="middle">have</text></g><g id="edge5" class="edge"><title>branch-&gt;branch</title><path fill="none" stroke="#000" d="M302.5556,-248.8673C312.3485,-249.0365 320.3326,-246.4141 320.3326,-241 320.3326,-237.7008 317.3678,-235.4382 312.8356,-234.2123"/><polygon fill="#000" stroke="#000" points="312.866 -230.696 302.556 -233.133 312.135 -237.658 312.866 -230.696"/><text x="375.215" y="-236.8" fill="#000" font-family="Times,serif" font-size="14" text-anchor="middle">can be merged with</text></g><g id="node6" class="node"><title>commit</title><polygon fill="none" stroke="#000" points="304.561 -173 246.015 -173 246.015 -137 304.561 -137 304.561 -173"/><text x="275.288" y="-150.8" fill="#000" font-family="Times,serif" font-size="14" text-anchor="middle">commit</text></g><g id="edge6" class="edge"><title>branch-&gt;commit</title><path fill="none" stroke="#000" d="M275.2877,-222.7616C275.2877,-211.3597 275.2877,-196.4342 275.2877,-183.494"/><polygon fill="#000" stroke="#000" points="278.788 -183.212 275.288 -173.212 271.788 -183.212 278.788 -183.212"/><text x="305.038" y="-193.8" fill="#000" font-family="Times,serif" font-size="14" text-anchor="middle">consists of</text></g><g id="node10" class="node"><title>i01</title><ellipse cx="242.288" cy="-80" fill="#000" stroke="#000" rx="0" ry="0"/></g><g id="edge10" class="edge"><title>commit-&gt;i01</title><path fill="none" stroke="#000" d="M267.2993,-136.8446C257.838,-115.3418 243.2351,-82.1533 242.3317,-80.1001"/><text x="278.888" y="-107.8" fill="#000" font-family="Times,serif" font-size="14" text-anchor="middle">records</text></g><g id="node7" class="node"><title>differences</title><polygon fill="none" stroke="#000" points="174.221 -36 96.354 -36 96.354 0 174.221 0 174.221 -36"/><text x="135.288" y="-13.8" fill="#000" font-family="Times,serif" font-size="14" text-anchor="middle">differences</text></g><g id="edge9" class="edge"><title>differences-&gt;history</title><path fill="none" stroke="#000" d="M135.2877,-36.2678C135.2877,-59.4372 135.2877,-99.6329 135.2877,-126.764"/><polygon fill="#000" stroke="#000" points="131.788 -126.807 135.288 -136.808 138.788 -126.808 131.788 -126.807"/><text x="159.196" y="-75.8" fill="#000" font-family="Times,serif" font-size="14" text-anchor="middle">make up</text></g><g id="node8" class="node"><title>log message</title><polygon fill="none" stroke="#000" points="276.605 -36 191.97 -36 191.97 0 276.605 0 276.605 -36"/><text x="234.288" y="-13.8" fill="#000" font-family="Times,serif" font-size="14" text-anchor="middle">log message</text></g><g id="node9" class="node"><title>author</title><polygon fill="none" stroke="#000" points="348.288 -36 294.288 -36 294.288 0 348.288 0 348.288 -36"/><text x="321.288" y="-13.8" fill="#000" font-family="Times,serif" font-size="14" text-anchor="middle">author</text></g><g id="edge14" class="edge"><title>author-&gt;commit</title><path fill="none" stroke="#000" d="M320.6587,-36.2806C319.3563,-57.1241 315.3811,-91.825 303.2877,-119 301.8601,-122.2078 300.087,-125.3844 298.1309,-128.4445"/><polygon fill="#000" stroke="#000" points="295.211 -126.511 292.268 -136.689 300.916 -130.567 295.211 -126.511"/><text x="334.715" y="-75.8" fill="#000" font-family="Times,serif" font-size="14" text-anchor="middle">creates</text></g><g id="edge12" class="edge"><title>i01-&gt;differences</title><path fill="none" stroke="#000" d="M242.2101,-79.9551C240.3405,-78.8717 205.0277,-58.4101 175.4894,-41.2945"/><polygon fill="#000" stroke="#000" points="176.958 -38.1 166.551 -36.115 173.449 -44.157 176.958 -38.1"/></g><g id="edge13" class="edge"><title>i01-&gt;log message</title><path fill="none" stroke="#000" d="M242.2819,-79.9551C242.1553,-78.9745 239.9801,-62.1165 237.9308,-46.2345"/><polygon fill="#000" stroke="#000" points="241.376 -45.585 236.625 -36.115 234.434 -46.481 241.376 -45.585"/></g><g id="edge11" class="edge"><title>i01-&gt;author</title><path fill="none" stroke="#000" d="M242.3449,-79.9551C243.6955,-78.8951 268.685,-59.2831 290.1903,-42.4055"/><polygon fill="#000" stroke="#000" points="292.5 -45.042 298.205 -36.115 288.178 -39.536 292.5 -45.042"/></g></g></svg>